<mxfile host="app.diagrams.net" agent="Mozilla/5.0 (Macintosh; Intel Mac OS X 10_15_7) AppleWebKit/605.1.15 (KHTML, like Gecko) Version/18.0.1 Safari/605.1.15" version="24.7.17">
  <diagram name="Page-1" id="OKoSd6tLzu933onekmis">
    <mxGraphModel dx="1026" dy="692" grid="1" gridSize="10" guides="1" tooltips="1" connect="1" arrows="1" fold="1" page="1" pageScale="1" pageWidth="1920" pageHeight="1200" math="0" shadow="0">
      <root>
        <mxCell id="0" />
        <mxCell id="1" parent="0" />
        <mxCell id="W87RI8gLV-Hc2PDUYZC1-2" value="handle_file() [POST]" style="swimlane;fontStyle=0;childLayout=stackLayout;horizontal=1;startSize=30;horizontalStack=0;resizeParent=1;resizeParentMax=0;resizeLast=0;collapsible=1;marginBottom=0;whiteSpace=wrap;html=1;" parent="1" vertex="1">
          <mxGeometry x="280" y="380" width="140" height="120" as="geometry" />
        </mxCell>
        <mxCell id="W87RI8gLV-Hc2PDUYZC1-3" value="request.files (input)" style="text;strokeColor=none;fillColor=none;align=left;verticalAlign=middle;spacingLeft=4;spacingRight=4;overflow=hidden;points=[[0,0.5],[1,0.5]];portConstraint=eastwest;rotatable=0;whiteSpace=wrap;html=1;" parent="W87RI8gLV-Hc2PDUYZC1-2" vertex="1">
          <mxGeometry y="30" width="140" height="30" as="geometry" />
        </mxCell>
        <mxCell id="W87RI8gLV-Hc2PDUYZC1-4" value="error (output)" style="text;strokeColor=none;fillColor=none;align=left;verticalAlign=middle;spacingLeft=4;spacingRight=4;overflow=hidden;points=[[0,0.5],[1,0.5]];portConstraint=eastwest;rotatable=0;whiteSpace=wrap;html=1;" parent="W87RI8gLV-Hc2PDUYZC1-2" vertex="1">
          <mxGeometry y="60" width="140" height="30" as="geometry" />
        </mxCell>
        <mxCell id="W87RI8gLV-Hc2PDUYZC1-70" value="handle_processing (call)" style="text;html=1;align=center;verticalAlign=middle;whiteSpace=wrap;rounded=0;" parent="W87RI8gLV-Hc2PDUYZC1-2" vertex="1">
          <mxGeometry y="90" width="140" height="30" as="geometry" />
        </mxCell>
        <mxCell id="W87RI8gLV-Hc2PDUYZC1-7" value="handle_history() [GET]" style="swimlane;fontStyle=0;childLayout=stackLayout;horizontal=1;startSize=30;horizontalStack=0;resizeParent=1;resizeParentMax=0;resizeLast=0;collapsible=1;marginBottom=0;whiteSpace=wrap;html=1;" parent="1" vertex="1">
          <mxGeometry x="700" y="380" width="140" height="120" as="geometry" />
        </mxCell>
        <mxCell id="W87RI8gLV-Hc2PDUYZC1-8" value="Item 1" style="text;strokeColor=none;fillColor=none;align=left;verticalAlign=middle;spacingLeft=4;spacingRight=4;overflow=hidden;points=[[0,0.5],[1,0.5]];portConstraint=eastwest;rotatable=0;whiteSpace=wrap;html=1;" parent="W87RI8gLV-Hc2PDUYZC1-7" vertex="1">
          <mxGeometry y="30" width="140" height="30" as="geometry" />
        </mxCell>
        <mxCell id="W87RI8gLV-Hc2PDUYZC1-9" value="Item 2" style="text;strokeColor=none;fillColor=none;align=left;verticalAlign=middle;spacingLeft=4;spacingRight=4;overflow=hidden;points=[[0,0.5],[1,0.5]];portConstraint=eastwest;rotatable=0;whiteSpace=wrap;html=1;" parent="W87RI8gLV-Hc2PDUYZC1-7" vertex="1">
          <mxGeometry y="60" width="140" height="30" as="geometry" />
        </mxCell>
        <mxCell id="W87RI8gLV-Hc2PDUYZC1-10" value="Item 3" style="text;strokeColor=none;fillColor=none;align=left;verticalAlign=middle;spacingLeft=4;spacingRight=4;overflow=hidden;points=[[0,0.5],[1,0.5]];portConstraint=eastwest;rotatable=0;whiteSpace=wrap;html=1;" parent="W87RI8gLV-Hc2PDUYZC1-7" vertex="1">
          <mxGeometry y="90" width="140" height="30" as="geometry" />
        </mxCell>
        <mxCell id="W87RI8gLV-Hc2PDUYZC1-11" value="handle_display() [GET]" style="swimlane;fontStyle=0;childLayout=stackLayout;horizontal=1;startSize=30;horizontalStack=0;resizeParent=1;resizeParentMax=0;resizeLast=0;collapsible=1;marginBottom=0;whiteSpace=wrap;html=1;" parent="1" vertex="1">
          <mxGeometry x="485" y="380" width="140" height="120" as="geometry" />
        </mxCell>
        <mxCell id="W87RI8gLV-Hc2PDUYZC1-12" value="Item 1" style="text;strokeColor=none;fillColor=none;align=left;verticalAlign=middle;spacingLeft=4;spacingRight=4;overflow=hidden;points=[[0,0.5],[1,0.5]];portConstraint=eastwest;rotatable=0;whiteSpace=wrap;html=1;" parent="W87RI8gLV-Hc2PDUYZC1-11" vertex="1">
          <mxGeometry y="30" width="140" height="30" as="geometry" />
        </mxCell>
        <mxCell id="W87RI8gLV-Hc2PDUYZC1-13" value="Item 2" style="text;strokeColor=none;fillColor=none;align=left;verticalAlign=middle;spacingLeft=4;spacingRight=4;overflow=hidden;points=[[0,0.5],[1,0.5]];portConstraint=eastwest;rotatable=0;whiteSpace=wrap;html=1;" parent="W87RI8gLV-Hc2PDUYZC1-11" vertex="1">
          <mxGeometry y="60" width="140" height="30" as="geometry" />
        </mxCell>
        <mxCell id="W87RI8gLV-Hc2PDUYZC1-14" value="Item 3" style="text;strokeColor=none;fillColor=none;align=left;verticalAlign=middle;spacingLeft=4;spacingRight=4;overflow=hidden;points=[[0,0.5],[1,0.5]];portConstraint=eastwest;rotatable=0;whiteSpace=wrap;html=1;" parent="W87RI8gLV-Hc2PDUYZC1-11" vertex="1">
          <mxGeometry y="90" width="140" height="30" as="geometry" />
        </mxCell>
        <mxCell id="W87RI8gLV-Hc2PDUYZC1-22" value="Frontend &amp;amp; User" style="swimlane;whiteSpace=wrap;html=1;" parent="1" vertex="1">
          <mxGeometry x="455" y="120" width="200" height="90" as="geometry" />
        </mxCell>
        <mxCell id="W87RI8gLV-Hc2PDUYZC1-25" value="To Be Done" style="text;html=1;align=center;verticalAlign=middle;whiteSpace=wrap;rounded=0;" parent="W87RI8gLV-Hc2PDUYZC1-22" vertex="1">
          <mxGeometry x="20" y="40" width="160" height="30" as="geometry" />
        </mxCell>
        <mxCell id="W87RI8gLV-Hc2PDUYZC1-28" value="save_uploaded_file() [METHOD]" style="swimlane;fontStyle=0;childLayout=stackLayout;horizontal=1;startSize=30;horizontalStack=0;resizeParent=1;resizeParentMax=0;resizeLast=0;collapsible=1;marginBottom=0;whiteSpace=wrap;html=1;" parent="1" vertex="1">
          <mxGeometry x="290" y="710" width="140" height="120" as="geometry" />
        </mxCell>
        <mxCell id="W87RI8gLV-Hc2PDUYZC1-29" value="files (input)" style="text;strokeColor=none;fillColor=none;align=left;verticalAlign=middle;spacingLeft=4;spacingRight=4;overflow=hidden;points=[[0,0.5],[1,0.5]];portConstraint=eastwest;rotatable=0;whiteSpace=wrap;html=1;" parent="W87RI8gLV-Hc2PDUYZC1-28" vertex="1">
          <mxGeometry y="30" width="140" height="30" as="geometry" />
        </mxCell>
        <mxCell id="W87RI8gLV-Hc2PDUYZC1-62" value="Error (output)" style="text;html=1;align=center;verticalAlign=middle;whiteSpace=wrap;rounded=0;" parent="W87RI8gLV-Hc2PDUYZC1-28" vertex="1">
          <mxGeometry y="60" width="140" height="30" as="geometry" />
        </mxCell>
        <mxCell id="W87RI8gLV-Hc2PDUYZC1-63" value="file-writing (process)" style="text;html=1;align=center;verticalAlign=middle;whiteSpace=wrap;rounded=0;" parent="W87RI8gLV-Hc2PDUYZC1-28" vertex="1">
          <mxGeometry y="90" width="140" height="30" as="geometry" />
        </mxCell>
        <mxCell id="W87RI8gLV-Hc2PDUYZC1-38" value="Global Backend Parameters" style="swimlane;whiteSpace=wrap;html=1;" parent="1" vertex="1">
          <mxGeometry x="720" y="130" width="200" height="200" as="geometry" />
        </mxCell>
        <mxCell id="W87RI8gLV-Hc2PDUYZC1-39" value="file-cache = cache/file-history" style="text;html=1;align=center;verticalAlign=middle;whiteSpace=wrap;rounded=0;" parent="W87RI8gLV-Hc2PDUYZC1-38" vertex="1">
          <mxGeometry x="20" y="30" width="160" height="30" as="geometry" />
        </mxCell>
        <mxCell id="W87RI8gLV-Hc2PDUYZC1-40" value="upload_cache = cache/upload-cache" style="text;html=1;align=center;verticalAlign=middle;whiteSpace=wrap;rounded=0;" parent="W87RI8gLV-Hc2PDUYZC1-38" vertex="1">
          <mxGeometry x="10" y="60" width="180" height="30" as="geometry" />
        </mxCell>
        <mxCell id="W87RI8gLV-Hc2PDUYZC1-41" value="queue = &quot;cache/queue-cache" style="text;html=1;align=center;verticalAlign=middle;whiteSpace=wrap;rounded=0;" parent="W87RI8gLV-Hc2PDUYZC1-38" vertex="1">
          <mxGeometry x="20" y="90" width="160" height="30" as="geometry" />
        </mxCell>
        <mxCell id="W87RI8gLV-Hc2PDUYZC1-42" value="tf-save = cache/text-file-save" style="text;html=1;align=center;verticalAlign=middle;whiteSpace=wrap;rounded=0;" parent="W87RI8gLV-Hc2PDUYZC1-38" vertex="1">
          <mxGeometry x="20" y="120" width="150" height="30" as="geometry" />
        </mxCell>
        <mxCell id="W87RI8gLV-Hc2PDUYZC1-49" value="Error Handling" style="shape=process;whiteSpace=wrap;html=1;backgroundOutline=1;" parent="1" vertex="1">
          <mxGeometry x="495" y="270" width="120" height="60" as="geometry" />
        </mxCell>
        <mxCell id="W87RI8gLV-Hc2PDUYZC1-51" value="" style="endArrow=classic;html=1;rounded=0;entryX=0;entryY=0.5;entryDx=0;entryDy=0;" parent="1" target="W87RI8gLV-Hc2PDUYZC1-49" edge="1">
          <mxGeometry width="50" height="50" relative="1" as="geometry">
            <mxPoint x="350" y="380" as="sourcePoint" />
            <mxPoint x="400" y="330" as="targetPoint" />
            <Array as="points">
              <mxPoint x="350" y="300" />
            </Array>
          </mxGeometry>
        </mxCell>
        <mxCell id="W87RI8gLV-Hc2PDUYZC1-52" value="" style="endArrow=classic;html=1;rounded=0;entryX=0.5;entryY=1;entryDx=0;entryDy=0;exitX=0.5;exitY=0;exitDx=0;exitDy=0;" parent="1" source="W87RI8gLV-Hc2PDUYZC1-11" target="W87RI8gLV-Hc2PDUYZC1-49" edge="1">
          <mxGeometry width="50" height="50" relative="1" as="geometry">
            <mxPoint x="540" y="380" as="sourcePoint" />
            <mxPoint x="590" y="330" as="targetPoint" />
          </mxGeometry>
        </mxCell>
        <mxCell id="W87RI8gLV-Hc2PDUYZC1-53" value="" style="endArrow=none;dashed=1;html=1;dashPattern=1 3;strokeWidth=2;rounded=0;exitX=0.5;exitY=0;exitDx=0;exitDy=0;" parent="1" source="W87RI8gLV-Hc2PDUYZC1-49" edge="1">
          <mxGeometry width="50" height="50" relative="1" as="geometry">
            <mxPoint x="550" y="270" as="sourcePoint" />
            <mxPoint x="555" y="210" as="targetPoint" />
          </mxGeometry>
        </mxCell>
        <mxCell id="W87RI8gLV-Hc2PDUYZC1-54" value="" style="endArrow=classic;html=1;rounded=0;entryX=0;entryY=0.5;entryDx=0;entryDy=0;exitX=0;exitY=0.5;exitDx=0;exitDy=0;" parent="1" source="W87RI8gLV-Hc2PDUYZC1-22" target="W87RI8gLV-Hc2PDUYZC1-3" edge="1">
          <mxGeometry relative="1" as="geometry">
            <mxPoint x="330" y="170" as="sourcePoint" />
            <mxPoint x="430" y="170" as="targetPoint" />
            <Array as="points">
              <mxPoint x="190" y="165" />
              <mxPoint x="190" y="425" />
            </Array>
          </mxGeometry>
        </mxCell>
        <mxCell id="W87RI8gLV-Hc2PDUYZC1-55" value="&lt;span style=&quot;font-size: 15px;&quot;&gt;File Post&lt;/span&gt;" style="edgeLabel;resizable=0;html=1;;align=center;verticalAlign=middle;" parent="W87RI8gLV-Hc2PDUYZC1-54" connectable="0" vertex="1">
          <mxGeometry relative="1" as="geometry" />
        </mxCell>
        <UserObject label="upload-cache" treeRoot="1" id="W87RI8gLV-Hc2PDUYZC1-59">
          <mxCell style="whiteSpace=wrap;html=1;align=center;treeFolding=1;treeMoving=1;newEdgeStyle={&quot;edgeStyle&quot;:&quot;elbowEdgeStyle&quot;,&quot;startArrow&quot;:&quot;none&quot;,&quot;endArrow&quot;:&quot;none&quot;};" parent="1" vertex="1">
            <mxGeometry x="580" y="600" width="120" height="60" as="geometry" />
          </mxCell>
        </UserObject>
        <mxCell id="W87RI8gLV-Hc2PDUYZC1-65" value="" style="endArrow=none;dashed=1;html=1;dashPattern=1 3;strokeWidth=2;rounded=0;exitX=1;exitY=0.5;exitDx=0;exitDy=0;entryX=0;entryY=0.5;entryDx=0;entryDy=0;" parent="1" source="W87RI8gLV-Hc2PDUYZC1-63" target="W87RI8gLV-Hc2PDUYZC1-59" edge="1">
          <mxGeometry width="50" height="50" relative="1" as="geometry">
            <mxPoint x="490" y="550" as="sourcePoint" />
            <mxPoint x="540" y="500" as="targetPoint" />
            <Array as="points">
              <mxPoint x="490" y="630" />
            </Array>
          </mxGeometry>
        </mxCell>
        <mxCell id="W87RI8gLV-Hc2PDUYZC1-67" value="" style="endArrow=classic;html=1;rounded=0;entryX=0;entryY=0.5;entryDx=0;entryDy=0;exitX=0;exitY=0.5;exitDx=0;exitDy=0;" parent="1" source="W87RI8gLV-Hc2PDUYZC1-62" target="W87RI8gLV-Hc2PDUYZC1-4" edge="1">
          <mxGeometry relative="1" as="geometry">
            <mxPoint x="120" y="690" as="sourcePoint" />
            <mxPoint x="280" y="690" as="targetPoint" />
            <Array as="points">
              <mxPoint x="190" y="675" />
              <mxPoint x="190" y="570" />
              <mxPoint x="190" y="455" />
            </Array>
          </mxGeometry>
        </mxCell>
        <mxCell id="W87RI8gLV-Hc2PDUYZC1-68" value="&lt;font style=&quot;font-size: 15px;&quot;&gt;Error Handling&lt;/font&gt;" style="edgeLabel;resizable=0;html=1;;align=center;verticalAlign=middle;" parent="W87RI8gLV-Hc2PDUYZC1-67" connectable="0" vertex="1">
          <mxGeometry relative="1" as="geometry" />
        </mxCell>
        <mxCell id="W87RI8gLV-Hc2PDUYZC1-71" value="" style="endArrow=none;dashed=1;html=1;dashPattern=1 3;strokeWidth=2;rounded=0;entryX=0;entryY=0.25;entryDx=0;entryDy=0;exitX=1;exitY=0.5;exitDx=0;exitDy=0;" parent="1" source="W87RI8gLV-Hc2PDUYZC1-72" target="W87RI8gLV-Hc2PDUYZC1-22" edge="1">
          <mxGeometry width="50" height="50" relative="1" as="geometry">
            <mxPoint x="340" y="110" as="sourcePoint" />
            <mxPoint x="455" y="90" as="targetPoint" />
          </mxGeometry>
        </mxCell>
        <mxCell id="W87RI8gLV-Hc2PDUYZC1-72" value="initialize()&lt;div&gt;Initializes all directories on first launch.&lt;/div&gt;" style="shape=process;whiteSpace=wrap;html=1;backgroundOutline=1;" parent="1" vertex="1">
          <mxGeometry x="210" y="80" width="120" height="60" as="geometry" />
        </mxCell>
        <mxCell id="W87RI8gLV-Hc2PDUYZC1-79" value="" style="endArrow=classic;html=1;rounded=0;exitX=0.5;exitY=0;exitDx=0;exitDy=0;entryX=1;entryY=0.5;entryDx=0;entryDy=0;" parent="1" source="W87RI8gLV-Hc2PDUYZC1-7" target="W87RI8gLV-Hc2PDUYZC1-49" edge="1">
          <mxGeometry width="50" height="50" relative="1" as="geometry">
            <mxPoint x="650" y="360" as="sourcePoint" />
            <mxPoint x="620" y="300" as="targetPoint" />
            <Array as="points">
              <mxPoint x="670" y="360" />
              <mxPoint x="670" y="330" />
            </Array>
          </mxGeometry>
        </mxCell>
        <mxCell id="W87RI8gLV-Hc2PDUYZC1-80" value="handle_processing()" style="shape=process;whiteSpace=wrap;html=1;backgroundOutline=1;" parent="1" vertex="1">
          <mxGeometry x="1000" y="420" width="190" height="60" as="geometry" />
        </mxCell>
        <mxCell id="W87RI8gLV-Hc2PDUYZC1-81" value="" style="endArrow=none;dashed=1;html=1;dashPattern=1 3;strokeWidth=2;rounded=0;exitX=1;exitY=0.5;exitDx=0;exitDy=0;entryX=0;entryY=0.5;entryDx=0;entryDy=0;" parent="1" source="W87RI8gLV-Hc2PDUYZC1-70" target="W87RI8gLV-Hc2PDUYZC1-80" edge="1">
          <mxGeometry width="50" height="50" relative="1" as="geometry">
            <mxPoint x="870" y="430" as="sourcePoint" />
            <mxPoint x="920" y="380" as="targetPoint" />
            <Array as="points">
              <mxPoint x="500" y="530" />
              <mxPoint x="930" y="530" />
            </Array>
          </mxGeometry>
        </mxCell>
        <mxCell id="oHJjCsBVPUf1ZacrA_TA-1" value="allowed_file()&lt;div&gt;file type checking&lt;/div&gt;" style="shape=process;whiteSpace=wrap;html=1;backgroundOutline=1;" vertex="1" parent="1">
          <mxGeometry x="280" y="570" width="120" height="60" as="geometry" />
        </mxCell>
        <mxCell id="oHJjCsBVPUf1ZacrA_TA-2" value="" style="endArrow=classic;html=1;rounded=0;exitX=0.5;exitY=1;exitDx=0;exitDy=0;entryX=0.5;entryY=0;entryDx=0;entryDy=0;" edge="1" parent="1" source="oHJjCsBVPUf1ZacrA_TA-1" target="W87RI8gLV-Hc2PDUYZC1-28">
          <mxGeometry relative="1" as="geometry">
            <mxPoint x="310" y="660" as="sourcePoint" />
            <mxPoint x="410" y="660" as="targetPoint" />
          </mxGeometry>
        </mxCell>
        <mxCell id="oHJjCsBVPUf1ZacrA_TA-3" value="&lt;font style=&quot;font-size: 15px;&quot;&gt;(If file is allowed)&lt;/font&gt;" style="edgeLabel;resizable=0;html=1;;align=center;verticalAlign=middle;" connectable="0" vertex="1" parent="oHJjCsBVPUf1ZacrA_TA-2">
          <mxGeometry relative="1" as="geometry" />
        </mxCell>
      </root>
    </mxGraphModel>
  </diagram>
</mxfile>
